<svg xmlns="http://www.w3.org/2000/svg" width="128" height="128" viewBox="0 0 128 128">
  <defs>
    <linearGradient id="bananaGrad" x1="0%" y1="0%" x2="100%" y2="100%">
      <stop offset="0%" style="stop-color:#FEF08A;stop-opacity:1" />
      <stop offset="100%" style="stop-color:#FACC15;stop-opacity:1" />
    </linearGradient>
  </defs>
  <path d="M 45 40 Q 35 45 32 58 Q 30 75 40 88 Q 52 98 68 95 Q 88 90 94 75 Q 98 60 92 48 Q 85 38 72 36 Q 58 35 45 40 Z" 
        fill="url(#bananaGrad)" stroke="#EAB308" stroke-width="2"/>
  <path d="M 50 50 Q 48 65 54 80 M 60 48 Q 58 63 62 78 M 70 46 Q 70 60 72 74" 
        stroke="#CA8A04" stroke-width="1.5" opacity="0.4" fill="none"/>
  <circle cx="42" cy="52" r="3" fill="#92400E" opacity="0.6"/>
  <circle cx="88" cy="68" r="3" fill="#92400E" opacity="0.6"/>
</svg>
